<svg viewBox="0 0 120 12" version="1.1" xmlns="http://www.w3.org/2000/svg" class="logo-image">
    <g stroke="none" stroke-width="1" fill-rule="evenodd" class="logo-image-group">
        <g class="logo-char">
            <path
                d="M5.94604444,9.36692143 C7.89382222,9.36692143 9.5016,7.83156429 9.5016,5.95335 C9.5016,4.07513571 7.89382222,2.50999286 5.94604444,2.50999286 C3.99826667,2.50999286 2.40604444,4.07513571 2.40604444,5.95335 C2.40604444,7.83156429 3.99826667,9.36692143 5.94604444,9.36692143 M5.9456,0.189492857 C9.25782222,0.189492857 11.9076,2.76049286 11.9076,5.95463571 C11.9076,9.14835 9.25782222,11.6876357 5.9456,11.6876357 C2.63337778,11.6876357 4.44444444e-05,9.14835 4.44444444e-05,5.95463571 C4.44444444e-05,2.76049286 2.63337778,0.189492857 5.9456,0.189492857"></path>
        </g>
        <g class="logo-char char-animate">
            <polygon
                points="23.9228 0.399857143 20.8641333 8.63571429 17.8056889 0.399857143 15.2085778 0.399857143 19.6330222 11.7891429 22.0183556 11.7891429 26.4619111 0.399857143"></polygon>
        </g>
        <g class="logo-char char-animate">
            <polygon
                points="39.3080222 0.210921429 39.3080222 2.28842143 33.7102444 2.28842143 33.7102444 4.77392143 37.8864667 4.77392143 37.8864667 6.79592143 33.7102444 6.79592143 33.7102444 9.50406429 39.3080222 9.50406429 39.3080222 11.6002071 31.2866889 11.6002071 31.2866889 0.210921429"></polygon>
        </g>
        <g class="logo-char char-animate">
            <path
                d="M47.5013778,5.40462857 L49.7711556,5.40462857 C51.0022667,5.40462857 51.6371556,4.77398571 51.6371556,3.82812857 C51.6371556,2.86341429 51.0022667,2.23277143 49.7711556,2.23277143 L47.5013778,2.23277143 L47.5013778,5.40462857 Z M47.5013778,7.35248571 L47.5013778,11.6002714 L45.0584889,11.6002714 L45.0584889,0.210985714 L49.9253778,0.210985714 C52.4064889,0.210985714 54.0609333,1.4907 54.0609333,3.82812857 C54.0609333,5.6457 53.0220444,6.79598571 51.3678222,7.18534286 L54.4840444,11.6002714 L51.7140444,11.6002714 L48.7902667,7.35248571 L47.5013778,7.35248571 Z"></path>
        </g>
        <g class="logo-char char-animate">
            <path
                d="M63.8119333,9.504 C66.0628222,9.504 67.2939333,8.11307143 67.2939333,5.90571429 C67.2939333,3.6795 66.0628222,2.28857143 63.8119333,2.28857143 L62.1770444,2.28857143 L62.1770444,9.504 L63.8119333,9.504 Z M59.7339333,0.210857143 L63.9083778,0.210857143 C67.4861556,0.210857143 69.7368222,2.43685714 69.7368222,5.90571429 C69.7368222,9.37435714 67.4861556,11.6001429 63.9083778,11.6001429 L59.7339333,11.6001429 L59.7339333,0.210857143 Z"></path>
        </g>
        <g class="logo-char char-animate">
            <path
                d="M79.6806222,9.36692143 C81.6284,9.36692143 83.2359556,7.83156429 83.2359556,5.95335 C83.2359556,4.07513571 81.6284,2.50999286 79.6806222,2.50999286 C77.7328444,2.50999286 76.1406222,4.07513571 76.1406222,5.95335 C76.1406222,7.83156429 77.7328444,9.36692143 79.6806222,9.36692143 M79.6801778,0.189492857 C82.9921778,0.189492857 85.6421778,2.76049286 85.6421778,5.95463571 C85.6421778,9.14835 82.9921778,11.6876357 79.6801778,11.6876357 C76.3679556,11.6876357 73.7346222,9.14835 73.7346222,5.95463571 C73.7346222,2.76049286 76.3679556,0.189492857 79.6801778,0.189492857"></path>
        </g>
        <g class="logo-char char-animate">
            <g transform="translate(90.000000, 0.000000)">
                <path
                    d="M2.7286,8.35407857 C3.05571111,9.35586429 3.92126667,9.81957857 5.07548889,9.81957857 C6.26815556,9.81957857 7.05682222,9.30015 7.05682222,8.39115 C7.05682222,7.70500714 6.63348889,7.33386429 5.61415556,7.11122143 L3.49815556,6.64729286 C1.80526667,6.27657857 0.497266667,5.40465 0.497266667,3.53136429 C0.497266667,1.47229286 2.26704444,0.0254357143 4.7486,0.0254357143 C7.44148889,0.0254357143 8.99993333,1.39815 9.38437778,3.32715 L6.94148889,3.32715 C6.67193333,2.56665 5.99882222,1.97307857 4.76771111,1.97307857 C3.65171111,1.97307857 2.90171111,2.49250714 2.90171111,3.30872143 C2.90171111,3.95800714 3.34415556,4.34736429 4.22904444,4.55157857 L6.38348889,5.03372143 C8.30726667,5.46036429 9.48082222,6.51786429 9.48082222,8.24286429 C9.48082222,10.4500071 7.59526667,11.7858643 5.0946,11.7858643 C2.45948889,11.7858643 0.593488889,10.5243643 0.189488889,8.35407857 L2.7286,8.35407857 Z"></path>
            </g>
        </g>
        <g class="logo-char char-animate">
            <polygon
                points="112.909356 0.210921429 112.909356 2.28842143 107.3118 2.28842143 107.3118 4.77392143 111.4878 4.77392143 111.4878 6.79592143 107.3118 6.79592143 107.3118 9.50406429 112.909356 9.50406429 112.909356 11.6002071 104.888022 11.6002071 104.888022 0.210921429"></polygon>
        </g>
        <g class="logo-char char-animate-dot">
            <g transform="translate(117.555556, 9.428571)">
                <path
                    d="M2.34468889,1.17887143 C2.34468889,1.7883 1.83224444,2.28222857 1.20046667,2.28222857 C0.568466667,2.28222857 0.0560222222,1.7883 0.0560222222,1.17887143 C0.0560222222,0.569442857 0.568466667,0.0755142857 1.20046667,0.0755142857 C1.83224444,0.0755142857 2.34468889,0.569442857 2.34468889,1.17887143"></path>
            </g>
        </g>
    </g>
</svg>
